<svg id="visual" viewBox="0 0 960 300" width="960" height="300" xmlns="http://www.w3.org/2000/svg" xmlns:xlink="http://www.w3.org/1999/xlink" version="1.1"><rect width="960" height="300" fill="#2b4d7c"></rect><g><g transform="translate(428 91)"><path d="M61 -63.2C74.7 -47.4 78.3 -23.7 79.8 1.5C81.3 26.8 80.8 53.5 67.2 66.5C53.5 79.6 26.8 78.9 1.4 77.5C-24 76.1 -48 74 -61.1 61C-74.2 48 -76.5 24 -75.3 1.2C-74.1 -21.6 -69.5 -43.2 -56.3 -59.1C-43.2 -74.9 -21.6 -85.1 1 -86.1C23.7 -87.1 47.4 -79.1 61 -63.2Z" fill="#223a5c"></path></g><g transform="translate(130 229)"><path d="M40.4 -39.2C51 -29.8 57.2 -14.9 56 -1.2C54.8 12.5 46.1 25 35.5 34.5C25 44.1 12.5 50.8 -1.4 52.2C-15.3 53.7 -30.7 49.8 -38.8 40.3C-47 30.7 -48 15.3 -47.7 0.3C-47.3 -14.7 -45.7 -29.4 -37.5 -38.7C-29.4 -48.1 -14.7 -52.2 0.1 -52.3C14.9 -52.4 29.8 -48.6 40.4 -39.2Z" fill="#223a5c"></path></g><g transform="translate(918 140)"><path d="M50.6 -51.7C66.1 -35.1 79.6 -17.5 79.3 -0.3C79 16.9 64.9 33.8 49.3 48.9C33.8 63.9 16.9 77.1 -1.4 78.5C-19.7 79.9 -39.5 69.6 -52.6 54.5C-65.8 39.5 -72.3 19.7 -74 -1.7C-75.6 -23.1 -72.5 -46.2 -59.3 -62.8C-46.2 -79.3 -23.1 -89.4 -2.8 -86.6C17.5 -83.8 35.1 -68.2 50.6 -51.7Z" fill="#223a5c"></path></g></g></svg>